<?xml version="1.0" encoding="UTF-8"?>
<svg width="700pt" height="700pt" version="1.1" viewBox="0 0 700 700" xmlns="http://www.w3.org/2000/svg">
 <path d="m577.19 87.523-56.465-56.465c-4.375-4.3789-10.309-6.8359-16.496-6.8359s-12.125 2.457-16.496 6.8359l-106.87 106.87c-4.375 4.375-6.8359 10.309-6.8359 16.496v56.469c0 6.1875 2.457 12.121 6.8359 16.496 4.375 4.375 10.309 6.8359 16.496 6.8359h56.48c6.1875-0.003906 12.121-2.4609 16.496-6.8359l106.86-106.87c4.3789-4.375 6.8359-10.309 6.8359-16.496s-2.457-12.121-6.8359-16.496zm-133.02 100.03h-23.48v-23.469l83.535-83.535 23.469 23.469zm69.156 69.113c-6.1875 0-12.121 2.457-16.496 6.832-4.3789 4.375-6.8359 10.312-6.8359 16.5v55.805l-34.543-34.543v-0.003907c-12.164-12.137-28.645-18.953-45.832-18.953-17.184 0-33.664 6.8164-45.828 18.953l-16.285 16.285-58.008-58.008c-12.152-12.129-28.617-18.941-45.785-18.941s-33.637 6.8125-45.785 18.941l-34.602 34.605v-130.81c0.007813-6.1836 2.4688-12.113 6.8438-16.488s10.305-6.8359 16.492-6.8438h140c8.3359 0 16.039-4.4492 20.207-11.668s4.168-16.113 0-23.332-11.871-11.668-20.207-11.668h-140c-18.559 0.023438-36.352 7.4023-49.477 20.527-13.121 13.121-20.504 30.914-20.523 49.473v280c0.019531 18.559 7.4023 36.352 20.523 49.477 13.125 13.121 30.918 20.504 49.477 20.523h280c18.559-0.019531 36.352-7.4023 49.473-20.523 13.125-13.125 20.504-30.918 20.527-49.477v-163.33c0-6.1875-2.4609-12.125-6.8359-16.5s-10.309-6.832-16.5-6.832zm-326.66 210c-6.1875-0.007813-12.117-2.4688-16.492-6.8438s-6.8359-10.305-6.8438-16.492v-83.203l67.598-67.598c3.4609-3.2578 8.0352-5.0742 12.789-5.0742s9.3281 1.8164 12.789 5.0742l73.922 73.898c0.19922 0.21484 0.26953 0.50781 0.47656 0.71484l99.527 99.523zm303.33-23.332v-0.003907c-0.11719 4.5-1.5664 8.8633-4.1719 12.531l-105.32-105.32 16.285-16.285h0.003907c3.4102-3.3906 8.0234-5.2969 12.832-5.2969 4.8125 0 9.4258 1.9062 12.836 5.2969l67.539 67.539z"/>
</svg>
