<?xml version="1.0" encoding="UTF-8"?>
<svg width="700pt" height="700pt" version="1.1" viewBox="0 0 700 700" xmlns="http://www.w3.org/2000/svg">
 <path d="m513.33 233.33c-6.1875 0-12.121 2.4609-16.496 6.8359-4.3789 4.375-6.8359 10.309-6.8359 16.5v78.867l-34.535-34.535c-12.191-12.098-28.672-18.887-45.848-18.887-17.176 0-33.656 6.7891-45.852 18.887l-16.332 16.566-57.867-58.102c-12.191-12.094-28.672-18.883-45.852-18.883-17.176 0-33.656 6.7891-45.848 18.883l-34.535 34.77v-130.9c0-6.1875 2.4609-12.121 6.8359-16.496 4.375-4.3789 10.309-6.8359 16.5-6.8359h186.67-0.003907c8.3359 0 16.039-4.4492 20.207-11.668 4.168-7.2188 4.168-16.113 0-23.332-4.168-7.2188-11.871-11.668-20.207-11.668h-186.66c-18.566 0-36.371 7.375-49.5 20.504-13.125 13.129-20.5 30.934-20.5 49.496v285.13c0.058593 17.188 6.9141 33.648 19.066 45.801s28.613 19.008 45.801 19.066h290.27c6.3203-0.050781 12.605-0.99219 18.664-2.7969 13.477-3.7812 25.336-11.875 33.766-23.047 8.4297-11.168 12.965-24.797 12.902-38.789v-192.03c0-6.2695-2.5195-12.277-6.9961-16.668-4.4805-4.3906-10.535-6.793-16.805-6.668zm-326.66 233.34c-6.1914 0-12.125-2.4609-16.5-6.8359s-6.8359-10.309-6.8359-16.5v-83.297l67.434-67.434c3.4102-3.3945 8.0234-5.2969 12.836-5.2969 4.8086 0 9.4219 1.9023 12.832 5.2969l174.3 174.07zm303.33-23.332v-0.003907c-0.14844 4.5195-1.6094 8.8984-4.1992 12.602l-105.47-105.93 16.566-16.332c3.3828-3.4492 8.0078-5.3945 12.836-5.3945s9.4531 1.9453 12.832 5.3945l67.434 67.898zm70-350h-23.332v-23.332c0-8.3359-4.4492-16.039-11.668-20.207s-16.113-4.168-23.332 0-11.668 11.871-11.668 20.207v23.332h-23.332c-8.3359 0-16.039 4.4492-20.207 11.668-4.168 7.2188-4.168 16.113 0 23.332 4.168 7.2188 11.871 11.668 20.207 11.668h23.332v23.332c0 8.3359 4.4492 16.039 11.668 20.207 7.2188 4.168 16.113 4.168 23.332 0 7.2188-4.168 11.668-11.871 11.668-20.207v-23.332h23.332c8.3359 0 16.039-4.4492 20.207-11.668s4.168-16.113 0-23.332-11.871-11.668-20.207-11.668z"/>
</svg>
