<?xml version="1.0" encoding="UTF-8"?>
<svg width="700pt" height="700pt" version="1.1" viewBox="0 0 700 700" xmlns="http://www.w3.org/2000/svg">
 <path d="m513.33 303.33c-6.1875 0-12.121 2.4609-16.496 6.8359-4.3789 4.375-6.8359 10.309-6.8359 16.5v9.1016l-34.535-34.535c-12.191-12.098-28.672-18.887-45.848-18.887-17.176 0-33.656 6.7891-45.852 18.887l-16.332 16.332-57.867-58.102c-12.418-11.664-28.812-18.156-45.852-18.156-17.035 0-33.43 6.4922-45.848 18.156l-34.535 34.77v-130.9c0-6.1875 2.4609-12.121 6.8359-16.496 4.375-4.3789 10.309-6.8359 16.5-6.8359h93.332c8.3359 0 16.039-4.4492 20.207-11.668s4.168-16.113 0-23.332-11.871-11.668-20.207-11.668h-93.332c-18.566 0-36.371 7.375-49.5 20.504-13.125 13.129-20.5 30.934-20.5 49.496v280c0 18.566 7.375 36.371 20.5 49.5 13.129 13.125 30.934 20.5 49.5 20.5h280c18.562 0 36.367-7.375 49.496-20.5 13.129-13.129 20.504-30.934 20.504-49.5v-116.66c0-6.1914-2.4609-12.125-6.8359-16.5s-10.309-6.8359-16.5-6.8359zm-326.66 163.34c-6.1914 0-12.125-2.4609-16.5-6.8359s-6.8359-10.309-6.8359-16.5v-83.297l67.668-67.434c3.4297-3.2695 7.9805-5.0898 12.715-5.0898 4.7383 0 9.2891 1.8203 12.719 5.0898l174.07 174.07zm303.33-23.332v-0.003907c-0.14844 4.5195-1.6094 8.8984-4.1992 12.602l-105.23-105.93 16.332-16.102c3.3828-3.4492 8.0078-5.3906 12.836-5.3906s9.4531 1.9414 12.832 5.3906l67.434 67.902zm86.566-203.23-39.898-40.137c13.254-21.562 17.891-47.332 12.98-72.164-4.9062-24.832-19-46.902-39.465-61.801s-45.793-21.531-70.934-18.578c-25.141 2.957-48.238 15.285-64.691 34.523-16.449 19.238-25.043 43.973-24.059 69.266 0.98438 25.293 11.473 49.285 29.367 67.188 18.539 18.656 43.699 29.223 70 29.402 18.809 0.23438 37.312-4.7773 53.434-14.469l40.133 40.367c4.3828 4.418 10.344 6.9023 16.566 6.9023s12.184-2.4844 16.566-6.9023c4.5625-4.3984 7.1406-10.461 7.1406-16.801 0-6.3359-2.5781-12.402-7.1406-16.797zm-86.566-53.434c-10.133 10.199-23.906 15.949-38.285 15.98-14.379 0.035156-28.18-5.6562-38.355-15.812-10.18-10.152-15.898-23.941-15.898-38.32 0-14.375 5.7188-28.164 15.898-38.32 10.176-10.156 23.977-15.844 38.355-15.812s28.152 5.7852 38.285 15.984c10.074 10.141 15.727 23.855 15.727 38.148 0 14.297-5.6523 28.008-15.727 38.152z"/>
</svg>
