<?xml version="1.0" encoding="UTF-8"?>
<svg width="700pt" height="700pt" version="1.1" viewBox="0 0 700 700" xmlns="http://www.w3.org/2000/svg">
 <path d="m576.57 53.668c-4.3711-4.3477-10.285-6.7852-16.449-6.7852-6.1641 0-12.078 2.4375-16.449 6.7852l-78.867 77-28.469-28c-5.9609-5.8359-14.578-8.0508-22.613-5.8047-8.0352 2.2461-14.262 8.6055-16.332 16.684-2.0742 8.0781 0.32031 16.652 6.2812 22.488l44.801 43.867-0.003906-0.003906c4.3633 4.2773 10.227 6.6719 16.336 6.6719 6.1055 0 11.973-2.3945 16.332-6.6719l95.199-93.332c4.3789-4.3398 6.8594-10.238 6.9023-16.402 0.042969-6.1641-2.3516-12.094-6.668-16.496zm-63.234 156.33c-6.1875 0-12.121 2.457-16.496 6.8359-4.3789 4.375-6.8359 10.309-6.8359 16.496v102.43l-34.535-34.535v0.003906c-12.133-12.211-28.633-19.078-45.848-19.078-17.215 0-33.719 6.8672-45.852 19.078l-16.332 16.332-57.867-58.102c-12.191-12.094-28.672-18.883-45.852-18.883-17.176 0-33.656 6.7891-45.848 18.883l-34.535 34.535v-130.67c0-6.1875 2.4609-12.121 6.8359-16.496 4.375-4.3789 10.309-6.8359 16.5-6.8359h140c8.3359 0 16.039-4.4492 20.207-11.668s4.168-16.113 0-23.332-11.871-11.668-20.207-11.668h-140c-18.566 0-36.371 7.375-49.5 20.504-13.125 13.129-20.5 30.934-20.5 49.496v280c0 18.566 7.375 36.371 20.5 49.5 13.129 13.125 30.934 20.5 49.5 20.5h280c18.562 0 36.367-7.375 49.496-20.5 13.129-13.129 20.504-30.934 20.504-49.5v-210c0-6.1875-2.4609-12.121-6.8359-16.496-4.375-4.3789-10.309-6.8359-16.5-6.8359zm-326.66 256.67c-6.1914 0-12.125-2.4609-16.5-6.8359s-6.8359-10.309-6.8359-16.5v-83.297l67.668-67.668c3.4297-3.2656 7.9805-5.0898 12.715-5.0898 4.7383 0 9.2891 1.8242 12.719 5.0898l73.965 73.965 100.1 100.34zm303.33-23.332v-0.003907c-0.035156 4.4688-1.5078 8.8047-4.1992 12.367l-105.23-105.7 16.332-16.332c3.4102-3.3906 8.0273-5.2969 12.836-5.2969s9.4219 1.9062 12.832 5.2969l67.434 68.133z"/>
</svg>
